<?xml version="1.0" standalone="no"?>
<!DOCTYPE svg PUBLIC "-//W3C//DTD SVG 20010904//EN"
 "http://www.w3.org/TR/2001/REC-SVG-20010904/DTD/svg10.dtd">
<svg version="1.0" xmlns="http://www.w3.org/2000/svg"
 width="697.000000pt" height="559.000000pt" viewBox="0 0 697.000000 559.000000"
 preserveAspectRatio="xMidYMid meet">

<g transform="translate(0.000000,559.000000) scale(0.100000,-0.100000)"
fill="#000000" stroke="none">
<path d="M0 2795 l0 -2795 3485 0 3485 0 0 2795 0 2795 -3485 0 -3485 0 0
-2795z m4167 1813 c-7 -56 -52 -117 -107 -144 l-45 -23 -582 -1 c-676 0 -678
0 -842 -82 -139 -69 -235 -162 -303 -294 -45 -85 -76 -179 -65 -190 3 -3 37
11 76 30 132 67 118 66 816 66 693 0 691 0 806 61 66 36 162 131 205 204 16
27 41 86 56 130 l27 80 -2 -730 -2 -730 -27 -73 c-40 -110 -84 -178 -173 -267
-62 -62 -100 -90 -165 -123 -136 -68 -167 -72 -637 -72 l-413 0 0 311 0 312
-77 -7 c-112 -9 -196 -32 -299 -81 -72 -35 -103 -57 -148 -105 -69 -75 -106
-145 -106 -201 0 -59 -18 -112 -52 -154 -34 -40 -95 -75 -133 -75 l-26 0 3
668 4 667 26 96 c101 371 381 657 731 749 67 18 121 19 766 19 l694 1 -6 -42z
m-823 -2750 c63 -19 140 -100 160 -167 59 -199 -63 -371 -263 -371 -154 0
-261 96 -277 248 -13 121 46 230 151 278 57 27 160 32 229 12z m-1324 -58 l0
-60 -110 0 -110 0 0 -40 0 -39 103 -3 102 -3 0 -55 0 -55 -102 -3 -102 -3 -3
-102 -3 -102 -62 -3 -63 -3 0 266 0 265 175 0 175 0 0 -60z m250 -205 l0 -266
-62 3 -63 3 -3 263 -2 262 65 0 65 0 0 -265z m370 128 l85 -136 3 136 3 137
64 0 65 0 0 -265 0 -265 -58 0 -59 0 -93 150 c-51 83 -97 150 -102 150 -4 0
-8 -68 -8 -150 l0 -151 -62 3 -63 3 -2 250 c-2 138 -1 256 2 263 3 8 27 12 72
12 l68 0 85 -137z m1095 20 c21 -65 44 -140 52 -167 10 -32 18 -45 23 -37 4 7
29 82 56 167 l48 154 73 0 c40 0 73 -2 73 -4 0 -6 -156 -460 -172 -498 -10
-27 -13 -28 -83 -28 l-72 0 -86 248 c-46 136 -88 255 -92 265 -6 15 0 17 68
17 l75 0 37 -117z m712 -138 c46 -137 83 -255 83 -262 0 -9 -20 -13 -70 -13
l-70 0 -12 45 -12 45 -77 0 -77 0 -14 -42 -13 -43 -70 0 c-41 0 -69 4 -69 10
1 6 39 124 85 263 l83 253 75 -3 74 -3 84 -250z"/>
<path d="M2447 3740 c-68 -21 -95 -38 -159 -98 -105 -98 -130 -176 -126 -406
l3 -168 40 32 c106 85 270 147 452 174 81 12 185 16 380 16 293 0 337 6 452
64 61 32 143 104 177 158 33 52 64 150 64 203 l0 45 -612 -1 c-567 0 -617 -1
-671 -19z"/>
<path d="M3145 1709 c-104 -92 -43 -259 95 -259 110 0 176 100 135 206 -23 60
-61 84 -137 84 -50 0 -62 -4 -93 -31z"/>
<path d="M4266 1612 c-9 -32 -16 -61 -16 -65 0 -4 18 -7 41 -7 34 0 40 3 35
16 -4 9 -11 36 -17 60 -6 25 -15 46 -19 49 -4 3 -15 -21 -24 -53z"/>
</g>
</svg>
