<?xml version="1.0" standalone="no"?>
<!DOCTYPE svg PUBLIC "-//W3C//DTD SVG 20010904//EN"
 "http://www.w3.org/TR/2001/REC-SVG-20010904/DTD/svg10.dtd">
<svg version="1.0" xmlns="http://www.w3.org/2000/svg"
 width="1280.000000pt" height="720.000000pt" viewBox="0 0 1280.000000 720.000000"
 preserveAspectRatio="xMidYMid meet">

<g transform="translate(0.000000,720.000000) scale(0.100000,-0.100000)"
fill="#000000" stroke="none">
<path d="M6393 5463 l687 -3 0 -24 c0 -14 -5 -37 -11 -53 -8 -22 -8 -25 2 -16
7 7 13 32 13 55 l1 43 -690 0 -690 0 688 -2z"/>
<path d="M5575 5436 c-63 -20 -139 -55 -124 -56 4 0 27 9 53 20 25 12 78 29
118 40 40 10 62 19 48 19 -14 0 -56 -10 -95 -23z"/>
<path d="M5710 5440 c-36 -4 -92 -15 -125 -24 -115 -34 -299 -140 -364 -210
-14 -14 -29 -26 -35 -26 -5 0 8 19 29 43 22 23 9 13 -28 -23 -62 -59 -140
-151 -162 -190 -13 -24 7 -1 57 65 49 65 88 104 88 88 0 -5 -14 -22 -30 -38
-40 -38 -120 -155 -158 -230 -42 -85 -89 -244 -102 -345 -6 -49 -10 -333 -10
-683 l0 -599 31 6 c90 18 145 90 155 204 5 56 14 85 38 124 17 28 35 50 39 49
5 -1 32 19 60 46 29 26 63 56 77 66 33 23 4 10 -35 -17 l-30 -20 18 21 c58 66
290 143 434 143 l53 0 0 -311 0 -310 438 5 c481 6 516 7 502 16 -6 4 14 16 45
29 30 12 60 19 66 15 7 -4 9 -3 6 3 -4 6 9 20 29 32 41 24 48 26 38 9 -5 -9
-2 -9 9 1 20 16 23 25 5 15 -7 -4 -4 2 6 14 23 26 44 30 26 5 -7 -10 19 14 56
53 38 39 78 87 88 105 25 45 17 37 -39 -39 -25 -35 -49 -62 -52 -59 -2 3 14
29 37 58 50 64 80 121 111 214 l24 70 3 675 2 675 -40 -83 c-59 -118 -144
-206 -256 -263 l-87 -44 -676 -5 c-665 -5 -677 -6 -741 -28 -36 -12 -89 -35
-119 -52 -55 -30 -81 -37 -81 -21 0 21 44 150 67 196 33 66 111 175 125 175 6
0 3 -10 -8 -22 -10 -13 1 -5 26 17 25 22 61 53 80 69 19 15 28 25 20 21 -8 -5
-25 -17 -37 -28 -13 -11 -26 -18 -29 -14 -16 16 143 108 257 149 64 23 68 23
689 28 609 5 626 6 665 26 46 24 92 84 101 132 l7 32 -649 -1 c-357 -1 -678
-5 -714 -9z m-375 -380 c-10 -11 -20 -18 -23 -15 -7 6 18 35 31 35 5 0 2 -9
-8 -20z m1320 -480 c20 -32 -59 -299 -82 -277 -3 4 -34 -19 -67 -51 -34 -31
-70 -63 -81 -70 -17 -11 -17 -11 5 -1 14 6 51 36 83 67 31 31 57 52 57 46 0
-18 -103 -110 -150 -134 -121 -61 -130 -63 -480 -71 -337 -7 -423 -16 -568
-60 -80 -25 -201 -88 -259 -136 -24 -19 -47 -31 -53 -28 -12 7 -12 134 -1 293
8 101 12 121 44 186 59 118 178 210 308 235 65 13 1236 13 1244 1z m-1475
-885 c-18 -19 -36 -32 -39 -30 -6 7 50 65 63 65 5 0 -5 -16 -24 -35z m1735
-245 c-10 -11 -21 -18 -23 -15 -3 3 3 12 14 20 27 20 30 18 9 -5z"/>
<path d="M5550 4568 c0 -4 7 -8 15 -8 8 0 15 4 15 8 0 5 -7 9 -15 9 -8 0 -15
-4 -15 -9z"/>
<path d="M5920 4570 l-115 -6 118 -2 c72 -1 117 2 117 8 0 6 -1 9 -2 8 -2 -1
-55 -5 -118 -8z"/>
<path d="M5357 4550 c-68 -21 -95 -38 -159 -98 -48 -45 -90 -107 -102 -152 -4
-14 7 2 24 35 66 128 191 211 337 225 77 7 77 7 18 8 -33 1 -86 -7 -118 -18z"/>
<path d="M5618 4563 c18 -2 45 -2 60 0 15 2 0 4 -33 4 -33 0 -45 -2 -27 -4z"/>
<path d="M6163 4563 c31 -2 83 -2 115 0 31 2 5 3 -58 3 -63 0 -89 -1 -57 -3z"/>
<path d="M6433 4563 c31 -2 83 -2 115 0 31 2 5 3 -58 3 -63 0 -89 -1 -57 -3z"/>
<path d="M6632 4495 c0 -16 2 -22 5 -12 2 9 2 23 0 30 -3 6 -5 -1 -5 -18z"/>
<path d="M6621 4444 c0 -11 3 -14 6 -6 3 7 2 16 -1 19 -3 4 -6 -2 -5 -13z"/>
<path d="M6591 4363 c-10 -26 -10 -27 4 -9 8 11 15 23 15 28 0 15 -7 8 -19
-19z"/>
<path d="M5081 4254 c0 -11 3 -14 6 -6 3 7 2 16 -1 19 -3 4 -6 -2 -5 -13z"/>
<path d="M5074 4130 c0 -58 1 -81 3 -52 2 28 2 76 0 105 -2 28 -3 5 -3 -53z"/>
<path d="M6295 4130 c-13 -6 -15 -9 -5 -9 8 0 22 4 30 9 18 12 2 12 -25 0z"/>
<path d="M6248 4113 c7 -3 16 -2 19 1 4 3 -2 6 -13 5 -11 0 -14 -3 -6 -6z"/>
<path d="M5863 4103 c71 -2 183 -2 250 0 67 1 10 3 -128 3 -137 0 -192 -2
-122 -3z"/>
<path d="M5613 4093 c9 -2 23 -2 30 0 6 3 -1 5 -18 5 -16 0 -22 -2 -12 -5z"/>
<path d="M5533 4083 c9 -2 23 -2 30 0 6 3 -1 5 -18 5 -16 0 -22 -2 -12 -5z"/>
<path d="M5478 4073 c6 -2 18 -2 25 0 6 3 1 5 -13 5 -14 0 -19 -2 -12 -5z"/>
<path d="M5398 4053 c7 -3 16 -2 19 1 4 3 -2 6 -13 5 -11 0 -14 -3 -6 -6z"/>
<path d="M5320 4030 c-8 -5 -10 -10 -5 -10 6 0 17 5 25 10 8 5 11 10 5 10 -5
0 -17 -5 -25 -10z"/>
<path d="M5071 3994 c0 -11 3 -14 6 -6 3 7 2 16 -1 19 -3 4 -6 -2 -5 -13z"/>
<path d="M5184 3964 c-18 -14 -18 -15 4 -4 12 6 22 13 22 15 0 8 -5 6 -26 -11z"/>
<path d="M5114 3919 c-48 -38 -55 -45 -29 -30 25 14 82 61 74 61 -3 0 -24 -14
-45 -31z"/>
<path d="M5383 5350 c-29 -17 -53 -33 -53 -36 0 -5 88 43 105 58 17 15 0 8
-52 -22z"/>
<path d="M7020 5311 c-20 -20 -54 -42 -76 -49 -30 -9 -195 -12 -620 -13 -319
-1 -592 -4 -609 -8 -16 -3 243 -5 575 -4 407 2 618 6 645 14 45 12 99 50 115
79 14 27 11 25 -30 -19z"/>
<path d="M5285 5284 l-30 -26 33 22 c17 12 32 23 32 26 0 7 -4 5 -35 -22z"/>
<path d="M7106 5258 c-3 -17 -4 -33 -1 -36 3 -3 6 3 7 14 2 10 5 -298 8 -686
l5 -705 3 717 c2 652 -3 793 -22 696z"/>
<path d="M5643 5223 c9 -2 23 -2 30 0 6 3 -1 5 -18 5 -16 0 -22 -2 -12 -5z"/>
<path d="M5590 5210 c-8 -5 -10 -10 -5 -10 6 0 17 5 25 10 8 5 11 10 5 10 -5
0 -17 -5 -25 -10z"/>
<path d="M5540 5190 c-8 -5 -10 -10 -5 -10 6 0 17 5 25 10 8 5 11 10 5 10 -5
0 -17 -5 -25 -10z"/>
<path d="M5468 5154 c-38 -20 -36 -28 2 -9 17 9 30 18 30 20 0 7 -1 6 -32 -11z"/>
<path d="M7055 5099 c-4 -6 -5 -12 -2 -15 2 -3 7 2 10 11 7 17 1 20 -8 4z"/>
<path d="M7021 5034 c-12 -19 -16 -32 -11 -29 11 7 43 65 36 65 -2 0 -13 -16
-25 -36z"/>
<path d="M5000 4970 c-6 -11 -8 -20 -6 -20 3 0 10 9 16 20 6 11 8 20 6 20 -3
0 -10 -9 -16 -20z"/>
<path d="M5247 4958 c-23 -31 -56 -89 -44 -78 10 9 76 110 72 110 -2 0 -15
-15 -28 -32z"/>
<path d="M6935 4932 c-33 -32 -71 -65 -85 -75 -24 -17 -24 -17 7 0 29 15 155
133 143 133 -3 0 -32 -26 -65 -58z"/>
<path d="M4955 4889 c-4 -6 -5 -12 -2 -15 2 -3 7 2 10 11 7 17 1 20 -8 4z"/>
<path d="M5176 4833 c-6 -14 -5 -15 5 -6 7 7 10 15 7 18 -3 3 -9 -2 -12 -12z"/>
<path d="M4926 4825 c-9 -26 -7 -32 5 -12 6 10 9 21 6 23 -2 3 -7 -2 -11 -11z"/>
<path d="M6770 4820 c-8 -5 -10 -10 -5 -10 6 0 17 5 25 10 8 5 11 10 5 10 -5
0 -17 -5 -25 -10z"/>
<path d="M5156 4795 c-9 -26 -7 -32 5 -12 6 10 9 21 6 23 -2 3 -7 -2 -11 -11z"/>
<path d="M6688 4793 c6 -2 18 -2 25 0 6 3 1 5 -13 5 -14 0 -19 -2 -12 -5z"/>
<path d="M5718 4783 c178 -2 466 -2 640 0 174 1 29 2 -323 2 -352 0 -495 -1
-317 -2z"/>
<path d="M5325 4770 c-25 -11 1 -11 35 0 20 6 21 8 5 8 -11 0 -29 -3 -40 -8z"/>
<path d="M5141 4744 c0 -11 3 -14 6 -6 3 7 2 16 -1 19 -3 4 -6 -2 -5 -13z"/>
<path d="M5190 4715 c-36 -19 -60 -34 -55 -34 6 0 39 15 75 34 36 19 61 34 55
34 -5 0 -39 -15 -75 -34z"/>
<path d="M4881 4674 c0 -11 3 -14 6 -6 3 7 2 16 -1 19 -3 4 -6 -2 -5 -13z"/>
<path d="M4872 4630 c0 -14 2 -19 5 -12 2 6 2 18 0 25 -3 6 -5 1 -5 -13z"/>
<path d="M4862 4560 c0 -19 2 -27 5 -17 2 9 2 25 0 35 -3 9 -5 1 -5 -18z"/>
<path d="M4852 3878 l-2 -628 28 1 c23 2 24 2 5 6 l-23 4 -3 622 -2 622 -3
-627z"/>
<path d="M5613 3873 c9 -2 25 -2 35 0 9 3 1 5 -18 5 -19 0 -27 -2 -17 -5z"/>
<path d="M5692 3568 l-2 -318 413 2 412 3 -407 2 -408 3 -3 313 -2 312 -3
-317z"/>
<path d="M5538 3863 c6 -2 18 -2 25 0 6 3 1 5 -13 5 -14 0 -19 -2 -12 -5z"/>
<path d="M5488 3853 c7 -3 16 -2 19 1 4 3 -2 6 -13 5 -11 0 -14 -3 -6 -6z"/>
<path d="M5400 3830 c-8 -5 -10 -10 -5 -10 6 0 17 5 25 10 8 5 11 10 5 10 -5
0 -17 -5 -25 -10z"/>
<path d="M7112 3815 c0 -16 2 -22 5 -12 2 9 2 23 0 30 -3 6 -5 -1 -5 -18z"/>
<path d="M7101 3764 c0 -11 3 -14 6 -6 3 7 2 16 -1 19 -3 4 -6 -2 -5 -13z"/>
<path d="M7076 3695 c-9 -26 -7 -32 5 -12 6 10 9 21 6 23 -2 3 -7 -2 -11 -11z"/>
<path d="M5123 3628 c-15 -20 -25 -38 -20 -38 3 0 12 11 21 25 17 26 16 35 -1
13z"/>
<path d="M5071 3524 c0 -11 3 -14 6 -6 3 7 2 16 -1 19 -3 4 -6 -2 -5 -13z"/>
<path d="M5061 3428 c0 -9 -4 -25 -7 -35 -5 -17 -5 -17 6 0 6 10 9 25 7 35 -4
15 -5 15 -6 0z"/>
<path d="M5021 3339 c-12 -16 -37 -39 -54 -50 -18 -10 -27 -19 -20 -19 15 0
80 56 94 81 15 28 6 23 -20 -12z"/>
<path d="M6794 3354 c-18 -14 -18 -15 4 -4 12 6 22 13 22 15 0 8 -5 6 -26 -11z"/>
<path d="M6548 3263 c6 -2 18 -2 25 0 6 3 1 5 -13 5 -14 0 -19 -2 -12 -5z"/>
<path d="M6100 2681 c24 -7 23 -8 -10 -13 -19 -4 -44 -9 -55 -13 -16 -6 -17
-5 -5 4 8 6 10 11 4 11 -5 0 -19 -7 -30 -16 -10 -8 -13 -12 -5 -8 10 5 12 3 7
-5 -5 -7 -14 -10 -21 -7 -7 2 -28 -12 -46 -31 -19 -20 -28 -32 -20 -28 9 5 12
3 9 -6 -3 -8 -10 -13 -16 -12 -7 2 -9 -4 -5 -14 4 -10 2 -14 -4 -10 -7 5 -9
-1 -6 -15 3 -15 2 -19 -4 -11 -6 8 -9 -30 -9 -96 1 -60 4 -107 8 -105 9 6 21
-33 13 -45 -3 -5 0 -13 6 -17 8 -5 9 -3 4 7 -8 12 -6 12 8 0 20 -16 23 -36 5
-25 -7 4 -2 -5 11 -19 25 -27 37 -35 26 -17 -10 17 12 11 26 -7 12 -14 12 -16
0 -8 -10 5 -12 4 -7 -4 4 -6 11 -9 16 -6 5 3 31 -1 57 -9 41 -13 210 -30 174
-18 -7 2 11 15 39 28 60 28 64 28 54 12 -4 -7 9 3 29 21 37 35 47 48 26 35 -7
-4 -10 -1 -7 7 3 8 10 13 16 12 7 -2 9 4 5 14 -5 12 -3 14 7 8 8 -5 11 -4 7 2
-4 6 -4 26 0 44 4 23 8 28 12 16 3 -9 6 23 6 70 0 48 -2 78 -4 68 -2 -11 -10
3 -21 36 -10 29 -17 56 -14 60 4 7 -81 89 -92 89 -3 0 16 -21 43 -46 l48 -46
-49 41 c-27 23 -53 41 -58 41 -5 0 -7 4 -4 9 9 14 -18 20 -61 16 -31 -4 -34
-3 -13 4 19 7 6 9 -50 9 -47 0 -66 -3 -50 -7z m-120 -54 c0 -2 -12 -14 -27
-28 l-28 -24 24 28 c23 25 31 32 31 24z m258 -87 c36 -22 71 -87 72 -132 0
-85 -73 -158 -159 -158 -59 0 -123 37 -127 74 0 6 -2 17 -2 24 -1 7 -6 10 -12
7 -5 -3 -10 -3 -10 2 0 4 -3 19 -5 33 -5 22 -4 23 5 5 8 -15 9 -10 5 25 -6 51
13 89 61 121 40 26 128 26 172 -1z m132 -313 c0 -2 -10 -12 -22 -23 l-23 -19
19 23 c18 21 26 27 26 19z"/>
<path d="M6227 2529 c7 -7 15 -10 18 -7 3 3 -2 9 -12 12 -14 6 -15 5 -6 -5z"/>
<path d="M6016 2475 c-9 -26 -7 -32 5 -12 6 10 9 21 6 23 -2 3 -7 -2 -11 -11z"/>
<path d="M6293 2405 c0 -22 2 -30 4 -17 2 12 2 30 0 40 -3 9 -5 -1 -4 -23z"/>
<path d="M6280 2352 c0 -6 -12 -25 -27 -44 -22 -27 -23 -29 -4 -13 27 23 45
54 37 63 -3 3 -6 0 -6 -6z"/>
<path d="M6040 2306 c32 -39 130 -61 168 -38 7 5 -14 6 -45 4 -50 -3 -63 0
-98 23 -22 15 -33 20 -25 11z"/>
<path d="M4575 2668 c-3 -8 -4 -130 -2 -273 l2 -260 3 268 2 267 168 -2 167
-2 -162 -3 -163 -3 0 -255 0 -255 55 0 c30 0 58 0 63 0 4 0 9 45 12 100 3 55
2 100 -2 100 -4 0 -9 -46 -11 -102 l-3 -103 -2 108 -2 108 110 -2 c61 -1 114
2 118 6 4 5 2 5 -5 1 -8 -4 -13 8 -15 41 l-3 48 -102 3 -103 3 0 49 0 50 110
0 110 0 2 58 1 57 7 -65 7 -65 -1 65 -1 65 -178 3 c-138 2 -179 0 -182 -10z"/>
<path d="M5055 2674 c6 -2 8 -96 5 -266 l-5 -263 58 3 58 4 -3 259 c-2 142 0
259 4 259 4 0 9 -120 11 -267 l3 -268 -1 270 0 270 -70 2 c-38 1 -65 0 -60 -3z"/>
<path d="M5325 2671 c-3 -5 -2 -12 2 -14 5 -3 6 -119 3 -259 l-5 -253 65 0 65
0 5 145 c3 80 1 151 -4 158 -5 7 -6 15 -4 18 9 8 50 -64 44 -75 -4 -5 -1 -13
5 -17 8 -4 9 -3 5 4 -4 7 -5 12 -2 12 10 0 47 -70 42 -79 -4 -5 -1 -13 5 -17
8 -5 9 -3 4 6 -6 9 -4 11 4 6 7 -5 10 -15 7 -23 -3 -8 -2 -12 3 -9 9 6 75 -94
66 -102 -3 -3 -5 -1 -5 4 0 5 -10 20 -21 34 l-21 25 21 -35 c11 -19 24 -35 28
-36 4 0 15 -3 23 -7 8 -3 35 -7 60 -9 l45 -3 -3 265 c-1 192 1 261 9 250 9
-13 10 -13 6 0 -3 11 -20 15 -73 15 l-69 0 -5 -133 c-3 -74 -2 -136 3 -139 4
-2 7 57 7 131 0 75 3 136 8 136 9 0 3 -273 -6 -282 -4 -4 -16 6 -26 24 -11 17
-13 28 -6 23 9 -6 10 -3 1 14 -7 11 -14 21 -17 21 -3 0 -2 -4 1 -10 3 -5 4
-10 2 -10 -10 0 -98 150 -93 158 3 5 -4 21 -15 38 -23 35 -26 24 -3 -14 16
-25 15 -25 -9 3 -14 16 -23 33 -20 37 2 5 -25 8 -61 8 -36 0 -67 -4 -71 -9z"/>
<path d="M6468 2673 c10 -4 10 -8 0 -21 -8 -10 -9 -13 -1 -9 14 9 48 -87 37
-104 -5 -8 -3 -9 6 -4 10 6 11 1 6 -21 -4 -18 -3 -24 2 -16 7 11 11 7 16 -13
4 -14 4 -31 0 -37 -5 -7 -2 -8 6 -3 10 6 12 3 8 -13 -4 -14 -2 -20 4 -16 6 4
8 -2 3 -16 -5 -16 -4 -20 5 -15 9 5 10 1 5 -15 -5 -14 -3 -20 3 -16 6 4 23
-32 41 -86 17 -51 35 -99 40 -106 6 -10 27 -13 75 -10 38 2 68 -1 71 -7 3 -5
2 0 -1 12 -3 13 -1 31 5 40 8 14 11 15 11 3 1 -10 4 -9 10 5 12 28 12 43 -1
25 -13 -18 -15 -26 40 143 24 70 46 125 51 122 4 -3 6 5 2 17 -4 16 -2 19 8
13 9 -5 11 -4 6 3 -4 7 1 37 10 67 12 36 21 51 26 43 4 -7 8 -8 8 -3 0 6 -6
17 -12 24 -11 12 -9 13 7 7 15 -5 17 -4 9 4 -7 7 -40 10 -85 8 -65 -3 -74 -5
-76 -23 -1 -16 -1 -16 3 -2 3 9 9 17 13 17 5 0 -1 -27 -13 -59 -13 -39 -24
-56 -29 -48 -5 7 -7 2 -3 -13 7 -33 -24 -135 -37 -118 -5 9 -6 6 -2 -8 3 -12
1 -32 -4 -45 -5 -13 -10 -17 -11 -9 0 13 -1 13 -10 0 -13 -20 -12 -33 1 -24 7
4 10 2 8 -5 -8 -24 -24 -6 -21 24 1 18 -1 25 -6 18 -11 -17 -64 149 -55 172 4
13 3 16 -6 11 -9 -6 -10 0 -6 21 5 21 4 24 -4 13 -10 -13 -11 -13 -11 0 0 8
-7 27 -14 43 -8 15 -11 27 -6 27 4 0 11 -5 13 -10 3 -6 4 -5 3 2 -2 9 -27 14
-82 15 -43 1 -73 -1 -66 -4z"/>
<path d="M7135 2670 c11 -5 15 -9 8 -9 -6 -1 -49 -113 -94 -251 -47 -139 -87
-244 -91 -237 -4 7 -7 4 -6 -8 2 -18 9 -20 77 -18 54 1 76 5 79 15 2 9 0 8 -7
-2 -16 -23 -14 4 4 46 l14 35 83 -3 82 -3 12 -40 11 -40 61 -3 c34 -2 62 -2
62 0 0 2 -36 113 -80 247 -44 134 -79 251 -78 260 3 13 -10 16 -77 18 -53 1
-73 -1 -60 -7z m132 -6 c-3 -3 -12 -4 -19 -1 -8 3 -5 6 6 6 11 1 17 -2 13 -5z
m-47 -206 c6 -24 15 -56 20 -72 15 -44 14 -46 -40 -46 -41 0 -50 3 -50 18 0
15 21 91 35 130 9 24 24 11 35 -30z"/>
<path d="M7190 2478 c0 -3 7 -21 15 -39 16 -34 16 -34 10 -4 -6 26 -25 60 -25
43z"/>
<path d="M7160 2368 c0 -14 9 -18 40 -18 22 0 40 4 40 8 0 5 -14 6 -31 4 -20
-3 -34 0 -40 9 -7 11 -9 10 -9 -3z"/>
<path d="M7106 2645 c-3 -9 -6 -22 -5 -28 0 -7 5 -1 10 12 5 13 8 26 5 28 -2
2 -6 -3 -10 -12z"/>
<path d="M7086 2585 c-9 -26 -7 -32 5 -12 6 10 9 21 6 23 -2 3 -7 -2 -11 -11z"/>
<path d="M5535 2556 c10 -14 19 -26 22 -26 7 0 -17 39 -28 46 -6 3 -3 -5 6
-20z"/>
<path d="M6396 2547 c3 -10 9 -15 12 -12 3 3 0 11 -7 18 -10 9 -11 8 -5 -6z"/>
<path d="M4712 2513 l-2 -42 104 -3 c57 -2 102 0 99 5 -2 4 -46 7 -98 7 l-94
0 -4 38 -4 37 -1 -42z"/>
<path d="M7071 2534 c0 -11 3 -14 6 -6 3 7 2 16 -1 19 -3 4 -6 -2 -5 -13z"/>
<path d="M5570 2500 c6 -11 13 -20 16 -20 2 0 0 9 -6 20 -6 11 -13 20 -16 20
-2 0 0 -9 6 -20z"/>
<path d="M7056 2495 c-3 -9 -6 -22 -5 -28 0 -7 5 -1 10 12 5 13 8 26 5 28 -2
2 -6 -3 -10 -12z"/>
<path d="M7036 2435 c-3 -9 -6 -22 -5 -28 0 -7 5 -1 10 12 5 13 8 26 5 28 -2
2 -6 -3 -10 -12z"/>
<path d="M4922 2410 c0 -14 2 -19 5 -12 2 6 2 18 0 25 -3 6 -5 1 -5 -13z"/>
<path d="M5470 2421 c0 -6 4 -13 10 -16 6 -3 7 1 4 9 -7 18 -14 21 -14 7z"/>
<path d="M7006 2344 c-9 -26 -16 -52 -15 -58 0 -6 9 13 20 43 10 30 17 56 15
58 -2 2 -11 -17 -20 -43z"/>
<path d="M5520 2340 c6 -11 13 -20 16 -20 2 0 0 9 -6 20 -6 11 -13 20 -16 20
-2 0 0 -9 6 -20z"/>
<path d="M6976 2255 c-3 -9 -6 -22 -5 -28 0 -7 5 -1 10 12 5 13 8 26 5 28 -2
2 -6 -3 -10 -12z"/>
<path d="M7277 2184 c8 -25 17 -44 18 -42 6 6 -19 88 -26 88 -4 0 -1 -20 8
-46z"/>
<path d="M7441 2154 c0 -11 3 -14 6 -6 3 7 2 16 -1 19 -3 4 -6 -2 -5 -13z"/>
</g>
</svg>
