<?xml version="1.0" standalone="no"?>
<!DOCTYPE svg PUBLIC "-//W3C//DTD SVG 20010904//EN"
 "http://www.w3.org/TR/2001/REC-SVG-20010904/DTD/svg10.dtd">
<svg version="1.0" xmlns="http://www.w3.org/2000/svg"
 width="4765.000000pt" height="2250.000000pt" viewBox="0 0 4765.000000 2250.000000"
 preserveAspectRatio="xMidYMid meet">

<g transform="translate(0.000000,2250.000000) scale(0.100000,-0.100000)"
fill="#000000" stroke="none">
<path d="M8360 16589 c-930 -81 -1768 -647 -2188 -1476 -122 -242 -196 -453
-246 -703 -53 -269 -51 -147 -51 -2765 l0 -2440 23 -142 c95 -597 340 -1093
747 -1512 444 -457 1003 -733 1645 -813 154 -19 4886 -19 5040 0 642 80 1201
356 1645 813 407 419 652 915 747 1512 l23 142 0 2440 c0 2617 2 2496 -51
2765 -161 811 -694 1514 -1434 1890 -335 169 -646 258 -1020 290 -141 12
-4741 11 -4880 -1z m5406 -1925 c4 -26 4 -83 1 -128 -23 -335 -337 -594 -837
-689 -115 -22 -119 -22 -1500 -23 -1414 0 -1515 -3 -1732 -40 -263 -45 -476
-146 -632 -300 -184 -183 -345 -509 -416 -844 -26 -121 -32 -310 -12 -376 13
-43 50 -105 67 -111 6 -1 23 22 39 53 56 106 243 269 416 363 92 49 309 122
445 150 287 58 465 72 970 78 317 4 573 0 915 -12 547 -20 1097 -23 1251 -6
304 33 552 175 740 424 95 126 148 249 219 507 34 124 66 234 71 245 4 11 7
-662 6 -1495 l-2 -1515 -27 -92 c-65 -220 -163 -436 -298 -659 -134 -222 -325
-464 -466 -592 -218 -199 -789 -499 -1100 -578 l-97 -24 -778 0 -779 0 0 804
0 804 -67 8 c-98 10 -322 -3 -433 -25 -457 -91 -824 -394 -999 -823 -82 -201
-115 -390 -110 -642 l4 -176 -25 5 c-14 2 -95 14 -180 25 -226 30 -205 22
-224 89 -20 71 -20 159 0 321 16 137 16 190 -13 1180 -34 1168 -18 2057 43
2365 98 494 497 1032 919 1239 216 106 485 174 838 211 389 40 845 43 1717 9
467 -18 1182 -15 1310 6 128 20 294 67 397 110 102 44 257 131 308 174 17 14
33 25 37 26 4 0 10 -21 14 -46z"/>
<path d="M12320 12264 c-19 -2 -100 -14 -180 -26 -127 -19 -183 -22 -450 -20
-168 1 -404 6 -525 12 -742 35 -1310 18 -1562 -45 -222 -56 -447 -202 -605
-392 -243 -291 -378 -669 -378 -1054 0 -134 5 -169 25 -169 20 0 149 88 285
195 251 196 570 316 949 356 126 13 477 9 954 -12 735 -31 1157 60 1429 310
110 101 206 255 257 411 31 99 92 372 86 391 -3 9 -18 22 -33 29 -27 13 -187
22 -252 14z"/>
<path d="M19855 14123 c-22 -1 -103 -7 -180 -13 -450 -34 -979 -114 -1275
-191 -309 -81 -674 -329 -904 -612 -283 -351 -434 -757 -466 -1252 -9 -152 0
-392 21 -525 21 -140 41 -240 48 -240 4 0 17 21 30 48 45 93 113 172 302 353
292 282 318 324 398 648 50 206 87 303 152 398 215 318 652 550 1134 604 135
15 608 17 1158 5 l407 -9 45 46 c117 123 121 394 8 564 -61 92 -150 145 -283
169 -68 12 -471 17 -595 7z"/>
<path d="M27357 14100 c-115 -29 -198 -110 -248 -241 -67 -176 -102 -866 -80
-1584 27 -908 33 -1134 28 -1152 -3 -14 -59 37 -238 217 -331 333 -580 617
-1107 1260 -509 622 -716 866 -953 1125 -317 346 -335 360 -474 360 -90 0
-144 -20 -204 -77 l-34 -32 6 -800 c4 -441 10 -1415 14 -2166 3 -751 9 -1376
13 -1390 4 -18 25 -35 74 -60 78 -39 176 -51 243 -30 93 31 177 125 233 261
l30 72 47 1286 c25 707 49 1290 53 1294 12 13 146 -101 280 -239 214 -219 440
-486 995 -1174 611 -757 837 -1023 1060 -1245 252 -253 351 -305 459 -241 81
47 162 190 206 359 54 214 84 915 84 2007 0 1097 -30 1717 -93 1919 -36 115
-114 212 -204 251 -52 23 -140 32 -190 20z"/>
<path d="M22239 14082 c-80 -22 -110 -40 -150 -95 -96 -130 -154 -384 -180
-787 -13 -206 -6 -1582 11 -2165 23 -784 72 -1231 152 -1402 41 -86 160 -157
263 -157 147 1 280 143 334 356 92 358 118 2434 45 3523 -27 409 -55 539 -140
651 -62 80 -202 112 -335 76z"/>
<path d="M30745 14094 c-348 -34 -580 -96 -832 -219 -768 -376 -1238 -1178
-1280 -2185 -5 -125 -3 -160 6 -160 28 0 175 71 258 125 182 118 334 304 508
620 168 305 190 343 248 430 131 197 284 345 482 464 249 151 493 221 765 221
425 0 796 -173 1110 -517 223 -243 383 -613 416 -960 5 -54 10 -73 21 -73 8 0
55 21 105 46 74 39 100 59 150 117 163 189 226 364 215 591 -11 228 -94 430
-277 674 -136 182 -390 406 -612 540 -331 200 -621 278 -1063 287 -99 2 -198
1 -220 -1z"/>
<path d="M39661 14080 c-60 -27 -177 -148 -244 -250 -293 -450 -1005 -2117
-1441 -3370 -46 -135 -102 -292 -124 -350 -98 -260 -93 -393 19 -494 23 -21
67 -50 98 -65 47 -22 70 -26 146 -26 108 0 141 13 226 92 104 97 177 228 302
548 113 286 114 287 309 293 70 3 246 -4 390 -13 296 -20 501 -16 618 10 249
57 334 205 263 458 -40 145 -206 236 -513 282 -58 9 -210 19 -337 22 -128 3
-233 10 -233 15 0 68 298 805 440 1088 78 155 148 230 214 230 85 0 171 -178
619 -1270 475 -1158 629 -1472 794 -1620 83 -74 166 -112 256 -118 135 -8 214
34 269 146 32 65 33 70 32 192 0 119 -3 133 -48 285 -179 604 -729 1867 -1383
3175 -225 452 -286 558 -374 654 -91 99 -199 130 -298 86z"/>
<path d="M33996 14066 c-75 -32 -124 -71 -150 -122 -18 -33 -21 -56 -20 -144
1 -159 57 -354 209 -725 41 -99 139 -344 218 -545 391 -987 763 -1817 1092
-2435 182 -342 255 -448 350 -511 159 -106 312 -21 486 271 354 592 1329 2857
1552 3605 94 315 64 516 -90 591 -70 33 -197 31 -313 -6 -47 -15 -90 -32 -96
-38 -7 -7 -323 -687 -704 -1512 -380 -825 -693 -1501 -696 -1504 -21 -21 -127
156 -294 494 -160 323 -208 436 -431 1009 -440 1127 -617 1458 -836 1562 -85
40 -197 44 -277 10z"/>
<path d="M19220 12089 c-421 -37 -859 -167 -1180 -351 -463 -266 -762 -622
-909 -1081 -90 -281 -133 -766 -87 -972 51 -223 175 -317 379 -285 76 11 227
57 227 68 0 18 43 272 66 387 161 816 450 1273 885 1399 48 13 130 29 182 35
120 14 565 14 842 1 116 -5 293 -11 395 -12 177 -3 187 -2 233 21 167 82 203
378 70 578 -43 65 -101 114 -174 147 -133 60 -605 93 -929 65z"/>
<path d="M33091 11938 c-63 -66 -169 -164 -235 -220 -401 -333 -405 -337 -604
-638 -163 -248 -234 -340 -343 -446 -273 -265 -691 -405 -1111 -373 -658 49
-1203 470 -1353 1045 -13 50 -27 119 -31 153 -6 58 -8 61 -34 61 -41 0 -148
-36 -203 -67 -70 -41 -151 -127 -191 -202 -51 -99 -69 -178 -69 -306 0 -169
35 -285 139 -463 307 -521 841 -864 1477 -947 137 -17 414 -20 555 -4 361 39
757 181 1052 378 399 265 778 725 936 1133 116 299 166 654 135 954 l-6 61
-114 -119z"/>
</g>
</svg>
